<svg width="4" height="14" viewBox="0 0 4 14" fill="none" xmlns="http://www.w3.org/2000/svg">
<g clip-path="url(#clip0)">
<path d="M0.5 12.25C0.5 13.2125 1.2875 14 2.25 14C3.2125 14 4 13.2125 4 12.25C4 11.2875 3.2125 10.5 2.25 10.5C1.2875 10.5 0.5 11.2875 0.5 12.25ZM0.5 1.75C0.5 2.7125 1.2875 3.5 2.25 3.5C3.2125 3.5 4 2.7125 4 1.75C4 0.787499 3.2125 -6.85453e-07 2.25 -6.85453e-07C1.2875 -6.85453e-07 0.5 0.787499 0.5 1.75ZM0.5 7C0.5 7.9625 1.2875 8.75 2.25 8.75C3.2125 8.75 4 7.9625 4 7C4 6.0375 3.2125 5.25 2.25 5.25C1.2875 5.25 0.5 6.0375 0.5 7Z" fill="#153C55"/>
</g>
<defs>
<clipPath id="clip0">
<rect width="14" height="3.5" fill="white" transform="translate(0.5 14) rotate(-90)"/>
</clipPath>
</defs>
</svg>
