<svg width="18" height="18" viewBox="0 0 18 18" fill="none" xmlns="http://www.w3.org/2000/svg">
<path d="M15.3636 2.63636C13.6629 0.935606 11.4053 0 9 0C6.5947 0 4.33712 0.935606 2.63636 2.63636C0.935606 4.33712 0 6.5947 0 9C0 11.4053 0.935606 13.6629 2.63636 15.3636C4.33712 17.0644 6.5947 18 9 18C11.4053 18 13.6629 17.0644 15.3636 15.3636C17.0644 13.6629 18 11.4053 18 9C18 6.5947 17.0644 4.33712 15.3636 2.63636ZM14.6402 14.6402C13.1326 16.1477 11.1288 16.9773 9 16.9773C6.87121 16.9773 4.86742 16.1477 3.35985 14.6402C0.25 11.5303 0.25 6.4697 3.35985 3.35985C4.86742 1.85227 6.87121 1.02273 9 1.02273C11.1288 1.02273 13.1326 1.85227 14.6402 3.35985C17.75 6.4697 17.75 11.5303 14.6402 14.6402Z" fill="white"/>
<path d="M12.9659 5.03411C12.7652 4.83336 12.4432 4.83336 12.2424 5.03411L9.00001 8.27654L5.7576 5.03411C5.55684 4.83336 5.23487 4.83336 5.03411 5.03411C4.83336 5.23487 4.83336 5.55684 5.03411 5.7576L8.27653 9.00002L5.03411 12.2424C4.83336 12.4432 4.83336 12.7652 5.03411 12.9659C5.1326 13.0644 5.26517 13.1174 5.39396 13.1174C5.52275 13.1174 5.65532 13.0682 5.75381 12.9659L8.99622 9.72351L12.2386 12.9659C12.3371 13.0644 12.4697 13.1174 12.5985 13.1174C12.7311 13.1174 12.8599 13.0682 12.9583 12.9659C13.1591 12.7652 13.1591 12.4432 12.9583 12.2424L9.7235 9.00002L12.9659 5.7576C13.1667 5.55684 13.1667 5.23487 12.9659 5.03411Z" fill="white"/>
</svg>
