<svg width="18" height="18" viewBox="0 0 18 18" fill="none" xmlns="http://www.w3.org/2000/svg">
<path d="M13.6552 8.68964C13.4839 8.68964 13.3448 8.82836 13.3448 8.99998V10.862C13.3448 13.2579 11.3959 15.2069 8.99999 15.2069C6.60413 15.2069 4.65517 13.2579 4.65517 10.862V8.99998C4.65517 8.82836 4.51613 8.68964 4.34482 8.68964C4.17351 8.68964 4.03448 8.82836 4.03448 8.99998V10.862C4.03448 13.4953 6.09641 15.6504 8.68965 15.8117V17.3793H7.13793C6.96662 17.3793 6.82758 17.518 6.82758 17.6896C6.82758 17.8613 6.96662 18 7.13793 18H10.8621C11.0334 18 11.1724 17.8613 11.1724 17.6896C11.1724 17.518 11.0334 17.3793 10.8621 17.3793H9.31034V15.8117C11.9036 15.6504 13.9655 13.495 13.9655 10.862V8.99998C13.9655 8.82836 13.8265 8.68964 13.6552 8.68964Z" fill="#8595A9"/>
<path d="M8.99999 14.2759C10.8822 14.2759 12.4138 12.7443 12.4138 10.8621V3.41379C12.4138 1.53155 10.8822 0 8.99999 0C7.11775 0 5.5862 1.53155 5.5862 3.41379V10.8621C5.5862 12.7443 7.11775 14.2759 8.99999 14.2759ZM6.20689 3.41379C6.20689 1.87355 7.46006 0.62069 8.99999 0.62069C10.5399 0.62069 11.7931 1.87355 11.7931 3.41379V10.8621C11.7931 12.4023 10.5399 13.6552 8.99999 13.6552C7.46006 13.6552 6.20689 12.4023 6.20689 10.8621V3.41379Z" fill="#8595A9"/>
</svg>
