<svg width="15" height="14" viewBox="0 0 15 14" fill="none" xmlns="http://www.w3.org/2000/svg">
<g clip-path="url(#clip0)">
<path d="M8.34599 14H6.65375C6.31576 14 6.03586 13.7467 6.00255 13.411L5.82906 12.3714C5.5031 12.2701 5.18641 12.1384 4.88383 11.9793L4.01309 12.6011C3.90898 12.6874 3.76186 12.7401 3.61102 12.7401C3.43611 12.7401 3.27189 12.6719 3.1481 12.5481L1.95163 11.3516C1.71267 11.1127 1.69416 10.7356 1.90814 10.4742L2.52071 9.61617C2.36108 9.31313 2.22969 8.99619 2.1286 8.67115L1.0737 8.49512C0.753533 8.46437 0.5 8.18444 0.5 7.84599V6.15401C0.5 5.81602 0.753304 5.53611 1.08898 5.50255L2.1286 5.32858C2.23014 5.00216 2.36177 4.68547 2.52048 4.38381L1.89888 3.51306C1.69391 3.26438 1.71242 2.88732 1.95163 2.64856L3.14833 1.45163C3.37899 1.22145 3.77387 1.20226 4.02509 1.40769L4.88429 2.02051C5.18572 1.86159 5.50241 1.73019 5.82906 1.62862L6.00463 0.573954C6.03588 0.253304 6.31602 0 6.65401 0H8.34622C8.68376 0 8.96366 0.253075 8.99768 0.588526L9.17142 1.62862C9.49761 1.73017 9.8143 1.86159 10.116 2.02051L10.9869 1.39867C11.0908 1.31261 11.238 1.26009 11.3888 1.26009C11.5637 1.26009 11.7279 1.3281 11.8514 1.45163L13.0479 2.64856C13.2867 2.88661 13.3058 3.26344 13.0923 3.52509L12.4795 4.38383C12.6387 4.68549 12.7698 5.00219 12.8714 5.3286L13.9263 5.50465C14.2469 5.53611 14.5 5.81602 14.5 6.15401V7.84599C14.5 8.18444 14.2467 8.46412 13.9105 8.49672L12.8714 8.67046C12.7698 8.99711 12.6384 9.31405 12.4795 9.61569L13.1013 10.4862C13.3061 10.7358 13.2869 11.1131 13.0477 11.3514L11.8514 12.5477C11.6217 12.7776 11.2259 12.7979 10.974 12.5914L10.1159 11.979C9.81334 12.1384 9.49667 12.27 9.1714 12.3712L8.99512 13.4263C8.96366 13.7467 8.68375 14 8.34599 14ZM4.86715 11.4754C4.90602 11.4754 4.94511 11.4851 4.98027 11.505C5.33284 11.7026 5.70805 11.8583 6.09648 11.9682C6.18254 11.9925 6.24684 12.0644 6.26164 12.1528L6.46082 13.3502C6.4724 13.4617 6.55637 13.5373 6.65375 13.5373H8.34599C8.44338 13.5373 8.52712 13.4619 8.53662 13.3654L8.73857 12.1528C8.75314 12.0646 8.81767 11.9927 8.90375 11.9684C9.29122 11.8587 9.66645 11.703 10.0192 11.5053C10.0972 11.4613 10.1939 11.4666 10.2668 11.5189L11.2548 12.2247C11.3545 12.305 11.4561 12.2883 11.5236 12.221L12.7203 11.0243C12.7906 10.9542 12.7962 10.8439 12.7337 10.7673L12.0184 9.76724C11.9661 9.69436 11.9611 9.59792 12.0048 9.5195C12.2023 9.16831 12.3578 8.7931 12.4675 8.40398C12.4918 8.31769 12.5637 8.25339 12.6523 8.23859L13.8499 8.03893C13.9614 8.02735 14.0371 7.94386 14.0371 7.84645V6.15446C14.0371 6.05708 13.9617 5.9731 13.8652 5.96361L12.6525 5.76189C12.5639 5.74709 12.4922 5.68279 12.4677 5.5965C12.358 5.20738 12.2023 4.83215 12.005 4.48146C11.9613 4.40302 11.9664 4.30656 12.0187 4.2337L12.7249 3.24521C12.7964 3.15684 12.7906 3.04672 12.7208 2.97685L11.5241 1.77967C11.4568 1.71235 11.3409 1.70658 11.2678 1.76649L10.267 2.482C10.1941 2.5343 10.0974 2.53938 10.0195 2.49566C9.6681 2.29833 9.29285 2.14264 8.90398 2.03252C8.81792 2.00845 8.75362 1.93628 8.73879 1.84791L8.53939 0.65052C8.52712 0.53669 8.445 0.462686 8.34599 0.462686H6.65375C6.55452 0.462686 6.47262 0.536484 6.4629 0.634575L6.26164 1.84699C6.24707 1.93536 6.18254 2.00731 6.09648 2.0316C5.7069 2.14195 5.33167 2.29742 4.98121 2.49475C4.90257 2.53848 4.8061 2.53338 4.73344 2.48109L3.74448 1.77482C3.64499 1.69524 3.54299 1.7112 3.47566 1.77898L2.27898 2.97569C2.20912 3.04555 2.20379 3.15567 2.26626 3.23178L2.98132 4.23278C3.03361 4.30587 3.03869 4.40234 2.99497 4.48055C2.79788 4.83126 2.64218 5.20647 2.53183 5.59581C2.50776 5.68187 2.43559 5.7462 2.34722 5.761L1.14983 5.96064C1.03646 5.97267 0.962686 6.05479 0.962686 6.15405V7.84604C0.962686 7.94505 1.03625 8.02694 1.13409 8.03641L2.34699 8.23813C2.43536 8.25273 2.50731 8.31726 2.5316 8.40352C2.64102 8.79056 2.79671 9.16602 2.99475 9.5195C3.03848 9.59769 3.03338 9.69393 2.98109 9.76681L2.27528 10.7548C2.2031 10.8437 2.20864 10.9538 2.27873 11.0239L3.47543 12.2204C3.54344 12.2881 3.6589 12.2942 3.73176 12.2335L4.73253 11.5185C4.77277 11.49 4.81996 11.4754 4.86715 11.4754ZM7.50023 9.7691C5.97295 9.7691 4.73045 8.52682 4.73045 6.99977C4.73045 5.47249 5.97295 4.22999 7.50023 4.22999C9.02753 4.22999 10.2698 5.47249 10.2698 6.99977C10.2696 8.52657 9.02728 9.7691 7.50023 9.7691ZM7.50023 4.69265C6.22813 4.69265 5.19311 5.72767 5.19311 6.99977C5.19311 8.27167 6.2281 9.30641 7.50023 9.30641C8.77212 9.30641 9.80712 8.27167 9.80712 6.99977C9.80689 5.72765 8.7721 4.69265 7.50023 4.69265Z" fill="#153C55"/>
</g>
<defs>
<clipPath id="clip0">
<rect width="14" height="14" fill="white" transform="translate(0.5)"/>
</clipPath>
</defs>
</svg>
