<svg width="28" height="20" viewBox="0 0 28 20" fill="none" xmlns="http://www.w3.org/2000/svg">
<path d="M28 3.37931H26.069V1.72414H24.1379V0.0689697H3.86207V1.72414H1.93103V3.37931H0V16.6207H1.93103V18.2759H3.86207V19.931H24.1379V18.2759H26.069V16.6207H28V3.37931ZM0.965517 15.7931V4.2069H1.93103V15.7931H0.965517ZM2.89655 17.4483V16.6207V3.37931V2.55173H3.86207V17.4483H2.89655ZM23.1724 19.1035H4.82759V18.2759V1.72414V0.896556H23.1724V1.72414V18.2759V19.1035ZM25.1034 17.4483H24.1379V2.55173H25.1034V3.37931V16.6207V17.4483ZM27.0345 15.7931H26.069V4.2069H27.0345V15.7931Z" fill="#153C55"/>
</svg>
